PathFileType	4	(X/Y/Z)	..\data\2015035\dynamic\2015035_C4_03.trc
DataRate	CameraRate	NumFrames	NumMarkers	Units	OrigDataRate	OrigDataStartFrame	OrigNumFrames
100.000000	100.000000	4	52	mm	100.000000	89	179
Frame#	Time	L_IAS			L_IPS			R_IPS			R_IAS			L_FTC			L_FLE			L_FME			L_FAX			L_TTC			L_FAL			L_TAM			L_FCC			L_FM1			L_FM2			L_FM5			R_FTC			R_FLE			R_FME			R_FAX			R_TTC			R_FAL			R_TAM			R_FCC			R_FM1			R_FM2			R_FM5			CV7			TV10			SXS			SJN			L_SIA			L_SRS			L_SAA			L_SAE			L_HLE			L_HME			L_UOA			L_RSP			L_UHE			L_HM2			L_HM5			R_SIA			R_SRS			R_SAA			R_SAE			R_HLE			R_HME			R_UOA			R_RSP			R_UHE			R_HM2			R_HM5			
		X1	Y1	Z1	X2	Y2	Z2	X3	Y3	Z3	X4	Y4	Z4	X5	Y5	Z5	X6	Y6	Z6	X7	Y7	Z7	X8	Y8	Z8	X9	Y9	Z9	X10	Y10	Z10	X11	Y11	Z11	X12	Y12	Z12	X13	Y13	Z13	X14	Y14	Z14	X15	Y15	Z15	X16	Y16	Z16	X17	Y17	Z17	X18	Y18	Z18	X19	Y19	Z19	X20	Y20	Z20	X21	Y21	Z21	X22	Y22	Z22	X23	Y23	Z23	X24	Y24	Z24	X25	Y25	Z25	X26	Y26	Z26	X27	Y27	Z27	X28	Y28	Z28	X29	Y29	Z29	X30	Y30	Z30	X31	Y31	Z31	X32	Y32	Z32	X33	Y33	Z33	X34	Y34	Z34	X35	Y35	Z35	X36	Y36	Z36	X37	Y37	Z37	X38	Y38	Z38	X39	Y39	Z39	X40	Y40	Z40	X41	Y41	Z41	X42	Y42	Z42	X43	Y43	Z43	X44	Y44	Z44	X45	Y45	Z45	X46	Y46	Z46	X47	Y47	Z47	X48	Y48	Z48	X49	Y49	Z49	X50	Y50	Z50	X51	Y51	Z51	X52	Y52	Z52	

90	0.89	799.3511352539065	979.3352661132815	-326.5179138183594	608.9597167968751	1003.569274902344	-226.4841613769532	613.3346557617189	998.8316650390627	-141.634017944336	804.6634521484377	981.3707275390627	-59.35306930541994	711.0424194335939	908.6626586914065	-375.7401428222657	826.5275878906252	494.600311279297	-384.2614135742189	848.5515747070315	496.4292907714845	-248.1842346191407	798.8062133789065	456.8705444335939	-385.985321044922	852.1652832031252	404.2178955078126	-342.5529785156251	577.4949951171876	176.8765716552735	-324.4842224121094	621.7871704101564	174.8860321044922	-237.1801910400391	528.5341186523439	168.8128509521485	-262.0177001953126	678.9760131835939	55.8362274169922	-256.4555358886719	679.6983032226564	70.3351516723633	-311.7463073730469	634.4957275390626	73.3376922607422	-353.6114501953126	728.6860961914064	889.8562011718752	-5.656716346740724	764.1468505859376	469.5810852050782	-64.47320556640626	754.7794799804689	476.7647705078126	-188.6208038330078	736.8438110351564	423.9078369140626	-64.43038177490236	800.1082153320315	406.0259094238282	-117.7706756591797	689.1883544921876	64.88098907470705	-101.2591629028321	730.3192138671876	87.43906402587892	-186.7325439453125	658.5906982421876	22.53329849243164	-149.745346069336	852.1587524414065	23.86490249633789	-170.6061248779297	868.1899414062502	35.06371688842774	-112.0108947753907	798.5643310546877	19.37970542907715	-64.27227020263673	643.0283203125001	1509.727783203125	-181.9272155761719	587.2603759765626	1218.922485351563	-178.1983184814453	829.9212036132815	1252.064697265625	-203.4581756591797	780.0808715820315	1420.679077148438	-194.5653533935547	566.0509643554689	1299.288208007813	-294.5279541015626	596.8643188476564	1446.332275390625	-273.5828247070313	664.7219238281251	1441.979736328125	-374.5078125000001	712.5526733398439	1441.824340820313	-384.2705078125001	693.4432373046876	1137.298950195313	-475.7239685058595	648.7223510742189	1118.194702148438	-393.7359313964845	646.4356079101564	1106.06201171875	-450.6272583007814	812.0173950195315	890.7447509765627	-435.1033325195314	768.7303466796877	886.116149902344	-499.8477172851564	850.5488281250002	810.6606445312502	-439.0664978027345	768.4400024414065	805.830505371094	-505.4836425781251	592.6337890625001	1293.326049804688	-49.55621719360353	622.1223754882814	1437.318359375	-78.66769409179689	702.4633789062501	1422.669189453125	13.02842235565186	755.6897583007814	1420.72509765625	14.62177848815918	759.8643188476564	1122.78271484375	95.31983947753908	704.9961547851564	1107.369262695313	20.95706176757813	715.0485229492189	1089.772338867188	81.15350341796876	900.647888183594	888.2187500000002	35.60634231567384	854.3049926757815	875.035827636719	98.79730987548831	942.7604980468752	807.119567871094	35.04198074340821	862.684265136719	808.3276367187502	105.8825225830078	
91	0.9	809.8277587890627	980.4384765625002	-325.3734436035157	619.4086303710939	1004.086608886719	-226.2774658203126	623.4747924804689	999.225280761719	-141.4703979492188	814.616882324219	981.4637451171877	-58.28930664062501	722.5323486328126	910.0991821289065	-375.7807312011719	845.0936279296877	496.970428466797	-383.3057250976563	865.612243652344	499.6691894531251	-247.4095306396485	818.3349609375002	457.983612060547	-384.994110107422	873.259704589844	407.3857727050782	-341.4809875488282	607.7674560546876	168.8759155273438	-324.5679626464844	651.8358154296876	168.8256988525391	-237.1660461425782	558.8466186523439	158.3114776611328	-262.2615966796876	715.3401489257814	53.0819549560547	-257.1477966308594	715.2296752929689	68.0167922973633	-312.2138366699219	669.7832641601564	68.72986602783205	-354.0941162109376	737.6010131835939	889.7468872070315	-5.377324581146241	766.5965576171876	469.5084533691407	-64.21334075927736	757.6946411132814	476.6960449218751	-188.405258178711	738.7798461914064	423.9380798339845	-64.21298980712892	801.9942016601565	405.6015930175782	-117.5795669555664	689.4163208007814	64.98455047607423	-101.6123962402344	730.5447998046876	87.40578460693361	-186.9994812011719	658.7275390625001	22.72118759155274	-150.0273132324219	852.2717895507815	23.76204872131348	-170.4996490478516	868.4634399414065	34.90281677246094	-111.8149032592774	798.534362792969	19.41476249694825	-64.25294494628908	653.4005737304689	1510.342651367188	-181.6769256591797	597.6728515625001	1219.443969726563	-177.2595367431641	840.2188720703127	1252.448974609375	-202.7075500488282	790.5279541015627	1421.057373046875	-194.2285308837891	575.9129028320314	1299.656616210938	-293.4309692382813	607.0415039062501	1446.828491210938	-273.0624084472657	674.5511474609376	1442.29833984375	-373.8623962402344	722.2816162109376	1441.916137695313	-383.9176025390626	699.3185424804689	1137.591064453125	-475.1239624023439	654.5071411132814	1119.219360351563	-393.1312561035157	651.9680786132814	1107.320434570313	-449.9337768554689	812.627380371094	888.384216308594	-436.0053100585939	769.0965576171877	885.0843505859377	-500.6587219238282	849.2437744140627	807.2819824218752	-440.3115539550782	766.8053588867189	804.8302001953127	-506.617889404297	603.3268432617189	1294.190673828125	-48.5126419067383	632.9261474609376	1437.921264648438	-77.91734313964845	713.0739746093751	1423.576904296875	13.52115345001221	766.1875610351564	1421.849975585938	14.99285888671875	773.0017700195315	1124.26953125	96.44619750976565	718.4266357421876	1108.031982421875	21.87133026123047	728.6497192382814	1090.401733398438	82.18780517578126	917.8199462890627	892.1296386718752	36.10405349731446	871.5084228515627	877.929382324219	99.03459930419925	961.3499755859377	811.8682861328127	35.41304779052735	881.1189575195315	811.3455200195315	105.8804321289063	
92	0.91	820.3321533203127	981.2613525390627	-324.3051147460938	629.7801513671876	1004.407287597656	-226.1411743164063	633.6885375976564	999.4169921875002	-141.4053497314453	824.5564575195315	981.339538574219	-57.30023193359376	733.9699707031251	911.2728271484377	-375.8243103027344	863.0681152343752	498.9668579101564	-382.2295837402344	881.8796997070315	502.5183410644532	-246.4678955078126	837.3416748046877	458.626434326172	-383.8961486816407	893.8364868164065	410.2792968750001	-340.2356872558594	638.6658935546876	160.221923828125	-324.7348327636719	682.5084228515626	162.0934600830078	-237.2526550292969	590.0569458007814	147.0913238525391	-262.5904541015626	752.2162475585939	50.06724166870119	-258.0048217773438	751.1916503906251	65.41270446777345	-312.8626098632813	705.6376953125001	63.90135574340822	-354.7388610839844	746.5054931640626	889.5278320312502	-5.161005973815919	769.030700683594	469.3998413085939	-63.94321823120119	760.6619873046876	476.5925598144532	-188.1751861572266	740.7632446289064	423.9586791992189	-64.00170135498048	803.9466552734377	405.1118164062501	-117.3734588623047	689.6539916992189	65.09178161621095	-101.9767608642578	730.8730468750001	87.32252502441408	-187.2948913574219	658.8867797851564	22.90171623229981	-150.3282623291016	852.4020996093752	23.67477989196778	-170.3998718261719	868.7288208007815	34.75363159179688	-111.6251220703125	798.515075683594	19.46702003479004	-64.24639892578126	663.7960205078126	1510.739379882813	-181.4781341552735	608.0717163085939	1219.759765625	-176.4270935058594	850.544860839844	1252.631958007813	-202.0104675292969	800.969909667969	1421.226318359375	-193.9384155273438	585.7537841796876	1299.778442382813	-292.3995361328126	617.2146606445314	1447.093872070313	-272.5798645019532	684.3691406250001	1442.40625	-373.2632751464844	731.9857177734376	1441.80859375	-383.6226196289063	705.1470947265626	1137.743286132813	-474.6016540527345	660.3609619140626	1120.051879882813	-392.5668945312501	657.4957275390626	1108.387329101563	-449.278533935547	813.4714965820315	886.174255371094	-436.8425903320314	769.6994628906252	884.085144042969	-501.3726501464845	848.2681274414065	804.1400146484377	-441.412322998047	765.5347900390626	803.8992919921877	-507.5767211914064	614.0037841796876	1294.820556640625	-47.56062316894532	643.6151733398439	1438.3427734375	-77.29275512695314	723.6383056640626	1424.252563476563	13.96495246887207	776.6425781250002	1422.74365234375	15.33915710449219	785.9465942382815	1125.544799804688	97.57478332519534	731.6776733398439	1108.505615234375	22.79823303222657	742.0767211914064	1090.817993164063	83.21665191650392	934.865417480469	896.0040283203127	36.49216461181641	888.5773925781252	880.7303466796877	99.13172912597659	979.8836669921877	816.6586914062502	35.61879348754884	899.4525146484377	814.2722167968752	105.6759185791016	
93	0.92	830.859313964844	981.7730712890627	-323.3341064453126	640.0620727539064	1004.530822753906	-226.0623474121094	643.9660034179689	999.4080810546877	-141.4248199462891	834.4882812500002	980.9859619140627	-56.39926147460939	745.3218994140626	912.150573730469	-375.8516845703126	880.4107666015627	500.5470275878907	-381.0489196777344	897.3352661132815	504.8931274414064	-245.3667449951172	855.7994384765627	458.7944946289064	-382.7081604003907	913.8464355468752	412.8665466308595	-338.8437194824219	670.2055053710939	151.0691833496094	-325.0292968750001	713.7921142578126	154.8411102294922	-237.4709167480469	622.1710205078126	135.333740234375	-263.0615539550782	789.5579833984377	46.9484977722168	-258.9959716796876	787.5686645507815	62.65557098388673	-313.6658630371094	742.0555419921876	58.9703941345215	-355.5373535156251	755.4158325195314	889.2058105468752	-5.007911682128907	771.4727783203127	469.2496643066407	-63.66477203369142	763.6849975585939	476.4561462402345	-187.9288330078125	742.8212280273439	423.9693603515626	-63.79697418212892	805.9826660156252	404.5508117675782	-117.1478652954102	689.8915405273439	65.20708465576173	-102.3365020751953	731.2910156250001	87.1990432739258	-187.6097717285157	659.0556030273439	23.07487869262696	-150.6388549804688	852.549499511719	23.59862327575684	-170.3108978271485	868.9848632812502	34.60913085937501	-111.4483108520508	798.5039672851565	19.52672767639161	-64.24832916259767	674.2337036132814	1510.909423828125	-181.3247222900391	618.4584960937501	1219.868408203125	-175.7025604248047	860.8997802734377	1252.6005859375	-201.3884582519532	811.4143066406252	1421.176879882813	-193.7038269042969	595.5682983398439	1299.662841796875	-291.4304199218751	627.3958129882814	1447.125244140625	-272.1281127929688	694.1843261718751	1442.301025390625	-372.7133178710938	741.6749267578126	1441.498413085938	-383.3885803222657	710.9461059570314	1137.74853515625	-474.1466064453126	666.3070068359376	1120.684448242188	-392.0268554687501	663.0378417968751	1109.252319335938	-448.6458740234376	814.5935058593752	884.091247558594	-437.6135864257814	770.570007324219	883.0954589843752	-501.9855041503907	847.6658935546877	801.2045898437502	-442.370086669922	764.6608276367189	803.005798339844	-508.3585510253907	624.6724243164064	1295.214721679688	-46.70083618164063	654.1878662109376	1438.58447265625	-76.80037689208986	734.1766357421876	1424.68212890625	14.35004806518555	787.0823364257815	1423.38623046875	15.65050506591797	798.7171020507815	1126.589233398438	98.70351409912112	744.7418823242189	1108.77734375	23.75247573852539	755.3398437500001	1091.012451171875	84.24998474121095	951.7463989257815	899.813659667969	36.7590560913086	905.511169433594	883.417419433594	99.09837341308597	998.3172607421877	821.4554443359377	35.65005493164063	917.6689453125002	817.0913085937502	105.2834167480469	
